<?xml version="1.0" standalone="no"?>
<!DOCTYPE svg PUBLIC "-//W3C//DTD SVG 1.1//EN" "http://www.w3.org/Graphics/SVG/1.1/DTD/svg11.dtd" >
<svg xmlns="http://www.w3.org/2000/svg">
<metadata>Generated by IcoMoon</metadata>
<defs>
<font id="icomoon" horiz-adv-x="1024">
<font-face units-per-em="1024" ascent="960" descent="-64" />
<missing-glyph horiz-adv-x="1024" />
<glyph unicode="&#x20;" horiz-adv-x="512" d="" />
<glyph unicode="&#xe900;" glyph-name="icon_fanhui" d="M908.885 503.808h-642.048l293.376 293.376c10.496 10.496 16.299 24.576 16.299 39.509s-5.803 29.013-16.299 39.509c-10.581 10.581-24.576 16.384-39.509 16.384h-0.171c-14.933 0-28.843-5.888-39.253-16.384l-388.693-388.864c-10.581-10.581-16.384-24.661-16.384-39.68 0-14.848 5.888-28.843 16.384-39.253l388.693-388.608c10.581-10.581 24.576-16.384 39.509-16.384h0.171c14.848 0 28.843 5.888 39.339 16.384s16.299 24.576 16.299 39.509-5.803 29.013-16.299 39.509l-293.461 293.376h641.963c30.805 0 55.808 25.088 55.808 55.808 0.085 30.72-25.003 55.808-55.723 55.808z" />
<glyph unicode="&#xe901;" glyph-name="icon_gengxin" horiz-adv-x="1035" d="M924.8 291.2l-181.6-32.8c-18.4-3.2-30.4-20.8-27.2-39.2 0.8-5.6 4-11.2 7.2-16l34.4-40.8c-156.8-132.8-392-112.8-524.8 44-52 60.8-82.4 137.6-87.2 217.6h-0.8v6.4c-3.2 22.4-24 38.4-47.2 34.4-22.4-3.2-38.4-24.8-34.4-47.2v-1.6c6.4-96.8 43.2-188.8 106.4-263.2 162.4-192 449.6-216 641.6-53.6l31.2-36.8c16.8-20 48.8-13.6 56.8 10.4l62.4 173.6c6.4 17.6-2.4 36.8-20 43.2-4.8 2.4-10.4 3.2-16.8 1.6zM108 606.4l181.6 32.8c18.4 3.2 30.4 20.8 27.2 39.2-0.8 5.6-4 11.2-7.2 16l-51.2 60.8 18.4-21.6c156.8 132.8 392 113.6 525.6-44 52.8-61.6 83.2-139.2 87.2-220.8h0.8v-4c3.2-22.4 24.8-38.4 47.2-34.4 20 3.2 35.2 20.8 35.2 40.8v7.2c-6.4 94.4-40.8 187.2-106.4 264.8-162.4 192-449.6 216-641.6 53.6l-32.8 39.2c-12 14.4-32.8 16-47.2 4-4.8-4-8-8.8-9.6-14.4l-64.8-175.2c-8.8-24 12-48.8 37.6-44z" />
<glyph unicode="&#xe902;" glyph-name="icon_khjkr" d="M181.954 89.766v48.025c0 163.269 125.908 297.828 286.319 312.988l-0.069 0.036c0 0 0.162 0 0.419-0.008 9.833 0.924 19.781 1.443 29.853 1.443 1.517 0 3.011-0.086 4.522-0.103 35.474 2.751 89.152 11.086 117.212 36.13l13.727 10.7c53.637 41.886 84.399 104.459 84.399 171.666 0 120.428-98.641 218.397-219.902 218.397-121.26 0-219.902-97.969-219.902-218.397 0-67.208 30.765-129.781 84.399-171.666l13.728-10.7-16.174-6.421c-142.883-56.731-235.209-191.778-235.209-344.063v-76.118c0-15.494 12.704-28.105 28.333-28.105h414.059c-13.481 17.27-24.973 36.098-34.259 56.198l-351.453-0.001zM335.211 670.641c0 89.445 73.217 162.209 163.22 162.209s163.235-72.763 163.235-162.209-73.231-162.206-163.235-162.206-163.22 72.761-163.22 162.206v0zM708.492 33.612c-121.958 0-221.187 99.261-221.187 221.269-0.004 121.948 99.224 221.163 221.187 221.163 121.995 0 221.245-99.216 221.245-221.163-0.003-122.009-99.249-221.269-221.245-221.269v0zM708.492 431.439c-97.363 0-176.581-79.208-176.581-176.557 0-97.387 79.217-176.605 176.581-176.605 97.387 0 176.614 79.218 176.614 176.605-0.004 97.349-79.235 176.557-176.614 176.557v0zM645.303 255.77l-63.094-65.311-35.931 35.51 96.894 101.438 91.526-86.372 82.643 95.958 38.641-33.355-118.036-135.859-92.642 87.991z" />
<glyph unicode="&#xe903;" glyph-name="icon_sousuo" horiz-adv-x="1023" d="M1011.841-1.335l-173.81 185.813c70.459 84.801 109.119 190.334 109.119 301.479 0 260.793-212.469 473.107-473.575 473.107s-473.575-212.158-473.575-473.107c0-260.949 212.469-473.107 473.575-473.107 67.654-0.156 134.528 14.341 196.102 42.4 18.238 8.262 26.344 29.93 18.083 48.168-4.053 8.729-11.38 15.588-20.421 19.018s-19.018 2.962-27.903-0.935c-52.065-23.694-108.651-35.853-165.86-35.853-220.887 0-400.621 179.578-400.621 400.309s179.734 400.309 400.621 400.309c221.043 0 400.777-179.578 400.777-400.309 0-103.974-39.594-202.337-111.613-277.161-6.703-7.015-10.288-16.212-10.132-25.877s4.209-18.862 11.224-25.565c1.091-1.091 2.494-1.403 3.741-2.338 0.935-1.403 1.559-3.118 2.806-4.365l188.463-201.402c6.859-7.482 16.524-11.535 26.656-11.535 8.885 0 17.927 3.274 24.941 9.821s11.224 15.744 11.535 25.253c-0.156 9.509-3.585 18.862-10.132 25.877v0z" />
<glyph unicode="&#xe904;" glyph-name="login_mm" d="M834.8 549.1h-645.5c-32.8 0-59.4-26.6-59.4-59.4v-430.3c0-32.8 26.6-59.4 59.4-59.4h645.5c32.7 0 59.4 26.6 59.4 59.4v430.3c-0.1 32.8-26.7 59.4-59.4 59.4zM839.9 446.7v-344.3c0-37.8-10.4-48.2-48.2-48.2h-559.4c-38.7 0-48.2 9.5-48.2 48.2v344.3c0 38.7 9.5 48.2 48.2 48.2h559.5c37.8 0 48.1-10.3 48.1-48.2zM207 589.3c16.5-0.1 30 13.1 30.4 29.6l0.1 2.9 0.6-0.1 1.2 4.5c32.4 123.9 144.6 210.4 272.7 210.4 100.1 0 193.5-54 243.8-140.7l0.2-0.3c4.8-10.9 15.5-17.9 27.4-17.9 16.5 0 29.8 13.4 29.8 29.8 0 6.2-1.9 12.2-5.2 16.9-61.3 105.8-174.7 171.6-296 171.6-164.8 0-302.4-110.7-334.6-269.1-0.2-0.7-0.3-1.4-0.4-2.2l-0.3-1.9c-1.7-16.7 10.6-31.7 27.3-33.3 1-0.1 2-0.2 3-0.2zM518.9 374.4c-15.7 0-28.4-12.7-28.4-28.4v-149.8c0-15.7 12.7-28.4 28.4-28.4s28.4 12.7 28.4 28.4v149.8c0 15.7-12.8 28.4-28.4 28.4z" />
<glyph unicode="&#xe905;" glyph-name="login_yzm" d="M696.996 325.512v0zM756.901 325.512v0zM710.517 334.603c4.418-4.219 10.22-6.546 16.382-6.546h0.072c6.151 0 11.923 2.297 16.353 6.487 0.176 0.22 0.362 0.431 0.561 0.635l0.074 0.075 256.083 256.051c9.277 9.279 9.277 24.377-0.001 33.655s-24.374 9.277-33.655 0l-239.509-239.51-132.266 132.264c-9.259 9.234-24.315 9.239-33.554 0-4.494-4.481-6.964-10.435-6.964-16.774-0.001-6.341 2.47-12.298 6.956-16.773l148.905-148.939c0.204-0.207 0.39-0.415 0.563-0.625zM742.424 333.16v0zM711.469 333.167v0zM270.666 546.435c-13.104 0-23.767-10.677-23.767-23.8s10.662-23.799 23.767-23.799h191.921c13.104 0 23.767 10.677 23.767 23.8s-10.662 23.799-23.767 23.799h-191.921zM270.666 397.163c-13.104 0-23.767-10.676-23.767-23.799s10.662-23.799 23.767-23.799h191.921c13.104 0 23.767 10.677 23.767 23.799s-10.662 23.799-23.767 23.799h-191.921zM174.741 800.215c-29.633 0-53.741-24.093-53.741-53.707v-597.017c0-29.614 24.108-53.707 53.741-53.707h533.009c29.633 0 53.741 24.093 53.741 53.707l-0.003 85.258c-0.047 11.947-9.805 21.666-21.751 21.666s-21.704-9.719-21.75-21.665l-0.004-1.002v-41.608c0-18.448-1.882-32.617-11.066-41.807s-23.346-11.075-41.782-11.075h-447.746c-18.45 0-32.62 1.883-41.81 11.072-9.189 9.19-11.072 23.36-11.072 41.81v511.72c0 18.449 1.883 32.619 11.072 41.809 9.19 9.19 23.361 11.073 41.81 11.073h447.746c18.436 0 32.597-1.883 41.782-11.075s11.066-23.36 11.066-41.807v-96.389l0.043-10.417-0.004-0.111c0.069-11.926 9.793-21.607 21.734-21.607 11.944 0 21.669 9.685 21.735 21.614-0.003 0.081-0.004 0.176-0.004 0.272 0 0.005 0 0.011 0 0.016v-0.001l0.004 149.271c0 29.614-24.108 53.707-53.741 53.707h-533.009z" />
<glyph unicode="&#xe906;" glyph-name="login_zh" d="M512.062 895.687c-145.474 0-263.405-117.929-263.405-263.405 0-103.547 59.76-193.123 146.664-236.164-162.798-48.177-281.184-194.463-281.184-367.464 0-9.519-0.488-5.867 0.218-15.211 0 0 3.528-12.176 23.284-13.086 19.755-0.911 24.894 12.779 24.894 12.779-0.801 9.332-0.375 5.987-0.375 15.518 0 186.621 156.657 340.225 349.903 340.225 1.728 0 3.451-0.039 5.176-0.064 4.825 0.045 12.849 0.358 23.209 1.59 132.125 14.158 235.022 125.996 235.022 261.877 0 145.476-117.931 263.405-263.406 263.405zM512.062 412.937c-121.14 0-219.347 98.204-219.347 219.345 0 121.143 98.207 219.349 219.347 219.349 121.142 0 219.347-98.206 219.347-219.349 0-121.141-98.205-219.345-219.347-219.345zM909.99 28.654c0 111.644-49.317 212.149-128.038 282.357-11.408 4.938-32.313 0.026-34.36-20.303-0.627-4.914 1.197-11.98 3.16-13.767 68.424-62.28 111.215-150.767 111.215-248.287 0-9.531 0.228-4.82-0.573-14.151 0 0 2.692-14.146 25.644-14.146 19.878 0 22.696 14.188 22.696 14.188 0.432 8.784 0.256 4.591 0.256 14.109z" />
<glyph unicode="&#xe907;" glyph-name="menu_ht" d="M896 64c0-70.692-57.308-128-128-128v0h-640c-70.692 0-128 57.308-128 128v0 640c0 70.692 57.308 128 128 128v0c0 70.692 57.308 128 128 128v0h640c70.692 0 128-57.308 128-128v0-640c0-70.692-57.308-128-128-128v0zM64 64c0-35.346 28.654-64 64-64v0h640c35.346 0 64 28.654 64 64v0 448h-768v-448zM64 704v-128h768v128c0 35.346-28.654 64-64 64v0h-640c-35.346 0-64-28.654-64-64v0zM960 832c0 35.346-28.654 64-64 64v0h-640c-35.346 0-64-28.654-64-64v0h576c70.692 0 128-57.308 128-128v0-576c35.346 0 64 28.654 64 64v0 640zM160 704h384c17.673 0 32-14.327 32-32s-14.327-32-32-32v0h-384c-17.673 0-32 14.327-32 32s14.327 32 32 32v0zM736 704c17.673 0 32-14.327 32-32s-14.327-32-32-32v0c-17.673 0-32 14.327-32 32s14.327 32 32 32v0z" />
<glyph unicode="&#xe908;" glyph-name="menu_jjd" d="M704.555 832h86.784c33.579 0 61.995-30.165 61.995-68.437v-631.125c0-38.357-28.373-68.437-62.123-68.437h-558.421c-33.707 0-62.123 30.165-62.123 68.437v631.125c0 38.315 28.416 68.437 61.995 68.437h87.040c0.002 0 0.004 0 0.007 0 23.564 0 42.667 19.103 42.667 42.667s-19.103 42.667-42.667 42.667c-0.002 0-0.005 0-0.007 0h-87.040c-81.92 0-147.328-69.419-147.328-153.771v-631.125c0-84.224 65.451-153.771 147.456-153.771h558.421c82.048 0 147.456 69.376 147.456 153.771v631.125c0 84.224-65.408 153.771-147.328 153.771h-86.784c-0.002 0-0.004 0-0.007 0-23.564 0-42.667-19.103-42.667-42.667s19.103-42.667 42.667-42.667c0.002 0 0.005 0 0.007 0v0zM469.333 832h85.333c23.561 0.004 42.66 19.105 42.66 42.667s-19.099 42.663-42.66 42.667h-85.334c-0.002 0-0.004 0-0.007 0-23.564 0-42.667-19.103-42.667-42.667s19.103-42.667 42.667-42.667c0.002 0 0.005 0 0.007 0v0zM341.333 618.667h341.333c23.561 0.004 42.66 19.105 42.66 42.667s-19.099 42.663-42.66 42.667h-341.334c-0.002 0-0.004 0-0.007 0-23.564 0-42.667-19.103-42.667-42.667s19.103-42.667 42.667-42.667c0.002 0 0.005 0 0.007 0v0zM341.333 405.333h341.333c23.564 0 42.667 19.103 42.667 42.667s-19.103 42.667-42.667 42.667h-341.333c-23.564 0-42.667-19.103-42.667-42.667s19.103-42.667 42.667-42.667v0zM341.333 192h341.333c23.561 0.004 42.66 19.105 42.66 42.667s-19.099 42.663-42.66 42.667h-341.334c-23.561-0.004-42.66-19.105-42.66-42.667s19.099-42.663 42.66-42.667v0z" />
<glyph unicode="&#xe909;" glyph-name="menu_sy" d="M384 64v267.648c0 36.907 33.408 73.685 71.125 73.685h113.749c37.589 0 71.125-36.779 71.125-73.685v-267.648h170.667v384c0.004 23.561 19.105 42.66 42.667 42.66s42.663-19.099 42.667-42.66v0-396.203c0-40.149-42.24-73.131-82.048-73.131h-216.619c-0.038 0-0.083 0-0.128 0-23.493 0-42.539 19.045-42.539 42.539 0 0.045 0 0.090 0 0.135v-0.007 298.667h-85.333v-298.667c0-23.564-19.103-42.667-42.667-42.667h-221.867c-37.717 0-76.8 34.517-76.8 73.131v396.203c0.004 23.561 19.105 42.66 42.667 42.66s42.663-19.099 42.667-42.66v0-384h170.667zM111.957 542.421l391.253 288c3.84 2.816 13.781 2.816 17.707-0.085l392.619-288.555c6.794-4.773 15.236-7.627 24.345-7.627 23.564 0 42.667 19.103 42.667 42.667 0 13.658-6.417 25.817-16.401 33.626l-0.094 0.071-392.576 288.597c-34.005 25.003-84.949 25.003-118.869 0l-391.253-287.957c-10.94-7.828-17.986-20.493-17.986-34.804 0-23.564 19.103-42.667 42.667-42.667 9.795 0 18.82 3.301 26.021 8.851l-0.1-0.074z" />
<glyph unicode="&#xe90a;" glyph-name="menu_xm" d="M42.667 704c0 117.76 95.659 213.333 213.333 213.333 117.76 0 213.333-95.659 213.333-213.333v-128.128c0-47.019-38.4-85.205-85.205-85.205h-128.128c-117.76 0-213.333 95.659-213.333 213.333zM384 704c0 70.571-57.387 128-128 128-70.571 0-128-57.387-128-128 0-70.571 57.387-128 128-128h128v128zM42.667 192c0 117.76 95.659 213.333 213.333 213.333h128.128c47.019 0 85.205-38.4 85.205-85.205v-128.128c0-117.76-95.659-213.333-213.333-213.333-117.76 0-213.333 95.659-213.333 213.333zM256 320c-70.571 0-128-57.387-128-128 0-70.571 57.387-128 128-128 70.571 0 128 57.387 128 128v128h-128zM554.667 704c0 117.76 95.659 213.333 213.333 213.333 117.76 0 213.333-95.659 213.333-213.333 0-117.76-95.659-213.333-213.333-213.333h-128.128c-47.019 0-85.205 38.4-85.205 85.205v128.128zM768 576c70.571 0 128 57.387 128 128 0 70.571-57.387 128-128 128-70.571 0-128-57.387-128-128v-128h128zM768 320c70.692 0 128-57.308 128-128s-57.308-128-128-128c-70.692 0-128 57.308-128 128v0 157.44c-0.004 23.561-19.105 42.66-42.667 42.66s-42.663-19.099-42.667-42.66v0-157.44c0-117.821 95.513-213.333 213.333-213.333s213.333 95.513 213.333 213.333c0 117.821-95.513 213.333-213.333 213.333v0c-23.561-0.004-42.66-19.105-42.66-42.667s19.099-42.663 42.66-42.667v0z" />
<glyph unicode="&#xe90b;" glyph-name="menu_zhedie-left" d="M51.2 755.2c-28.277 0-51.2 22.923-51.2 51.2s22.923 51.2 51.2 51.2v0h911.206c28.277 0 51.2-22.923 51.2-51.2s-22.923-51.2-51.2-51.2v0h-911.206zM51.2 38.4c-28.277 0-51.2 22.923-51.2 51.2s22.923 51.2 51.2 51.2h911.206c28.277 0 51.2-22.923 51.2-51.2s-22.923-51.2-51.2-51.2h-911.206zM460.8 396.8c-28.277 0-51.2 22.923-51.2 51.2s22.923 51.2 51.2 51.2h501.606c28.277 0 51.2-22.923 51.2-51.2s-22.923-51.2-51.2-51.2h-501.606zM59.904 458.035l199.834 139.878c3.279 2.33 7.365 3.724 11.776 3.724 11.311 0 20.48-9.169 20.48-20.48 0-0.013 0-0.027 0-0.040v0.002-279.757c-0.008-11.305-9.174-20.467-20.48-20.467-4.411 0-8.497 1.395-11.839 3.767l0.063-0.043-199.782 139.827c-5.302 3.752-8.721 9.861-8.721 16.768s3.419 13.016 8.658 16.725l0.064 0.043z" />
<glyph unicode="&#xe90c;" glyph-name="menu_zhedie-right" d="M51.2 755.2c0 0 0 0 0 0-28.672 0-51.2 22.528-51.2 51.2s22.528 51.2 51.2 51.2h911.36c0 0 0 0 0 0 28.672 0 51.2-22.528 51.2-51.2s-22.528-51.2-51.2-51.2h-911.36zM51.2 38.4c-28.672 0-51.2 22.528-51.2 51.2s22.528 51.2 51.2 51.2h911.36c28.672 0 51.2-22.528 51.2-51.2s-22.528-51.2-51.2-51.2h-911.36zM51.2 396.8c0 0 0 0 0 0-28.672 0-51.2 22.528-51.2 51.2s22.528 51.2 51.2 51.2h501.76c28.672 0 51.2-22.528 51.2-51.2s-22.528-51.2-51.2-51.2h-501.76zM954.368 458.24c2.048-2.048 4.096-2.048 4.096-4.096 6.144-10.24 4.096-22.528-4.096-28.672l-200.704-141.312c-4.096-2.048-8.192-4.096-12.288-4.096-12.288 0-20.48 8.192-20.48 20.48v280.576c0 4.096 2.048 8.192 4.096 12.288 6.144 10.24 18.432 12.288 28.672 4.096l200.704-139.264z" />
<glyph unicode="&#xe90d;" glyph-name="table_shaixuan" d="M113.6 928c-64.96 0-103.744-65.088-67.968-113.92l319.168-434.752c8.832-11.968 13.504-26.048 13.504-40.448v-334.080c0-28.672 34.816-46.272 61.952-31.36l185.984 102.080c11.509 6.009 19.295 17.743 19.583 31.321l0.001 0.039v232c0 14.4 4.672 28.48 13.44 40.512l319.168 434.688c35.84 48.832-3.072 113.92-67.968 113.92h-796.864z" />
<glyph unicode="&#xe90e;" glyph-name="table_zdy" horiz-adv-x="1025" d="M1018.881 522.24c-4.829 30.978-31.317 54.404-63.277 54.404-0.254 0-0.508-0.001-0.762-0.004h0.039c-69.926 0.999-126.229 57.918-126.229 127.988 0 23.31 6.231 45.164 17.118 63.989l-0.329-0.616c5.918 9.516 9.427 21.065 9.427 33.433 0 19.344-8.582 36.683-22.146 48.419l-0.081 0.068c-36.868 29.022-79.091 53.767-124.497 72.333l-3.503 1.267c-7.627 3.466-16.54 5.486-25.926 5.486-23.971 0-44.863-13.178-55.828-32.685l-0.166-0.322c-22.711-37.789-63.488-62.682-110.080-62.682s-87.369 24.893-109.758 62.105l-0.322 0.577c-11.131 19.828-32.024 33.006-55.994 33.006-9.385 0-18.298-2.020-26.329-5.649l0.403 0.163c-48.908-19.833-91.131-44.577-129.128-74.455l1.128 0.855c-13.645-11.804-22.227-29.143-22.227-48.487 0-12.368 3.508-23.917 9.584-33.706l-0.158 0.273c10.782-18.359 17.15-40.437 17.15-64.002 0-70.422-56.87-127.561-127.189-127.997h-0.042c-0.215 0.003-0.469 0.004-0.723 0.004-31.96 0-58.448-23.426-63.23-54.044l-0.046-0.36c-3.666-22.315-5.76-48.033-5.76-74.24s2.095-51.925 6.126-76.995l-0.365 2.755c4.829-30.978 31.317-54.404 63.277-54.404 0.254 0 0.508 0.001 0.762 0.004h-0.039c70.046-0.845 126.504-57.825 126.504-127.991 0-23.050-6.093-44.677-16.755-63.358l0.331 0.629c-5.427-9.203-8.632-20.277-8.632-32.1 0-20.438 9.58-38.638 24.494-50.355l0.138-0.105c36.868-29.022 79.091-53.767 124.497-72.333l3.503-1.267c6.833-2.715 14.751-4.29 23.037-4.29 23.746 0 44.472 12.933 55.518 32.139l0.165 0.311c22.711 37.789 63.488 62.682 110.080 62.682s87.369-24.893 109.758-62.105l0.322-0.577c11.182-19.632 31.969-32.655 55.799-32.655 8.484 0 16.582 1.651 23.991 4.648l-0.429-0.153c48.908 19.833 91.131 44.577 129.128 74.455l-1.128-0.855c14.797 11.826 24.194 29.873 24.194 50.115 0 11.963-3.282 23.16-8.996 32.738l0.162-0.293c-10.782 18.359-17.15 40.437-17.15 64.002 0 70.422 56.87 127.561 127.189 127.997h0.042c0.215-0.003 0.469-0.004 0.723-0.004 31.96 0 58.448 23.426 63.23 54.044l0.046 0.36c3.666 22.315 5.76 48.033 5.76 74.24s-2.095 51.925-6.126 76.995l0.365-2.755zM608.641 281.6c-27.504-16.12-60.567-25.639-95.854-25.639-106.039 0-192 85.961-192 192s85.961 192 192 192c70.677 0 132.434-38.188 165.764-95.056l0.49-0.905c16.186-27.548 25.746-60.677 25.746-96.039 0-70.752-38.269-132.565-95.237-165.87l-0.909-0.491z" />
<glyph unicode="&#xe90f;" glyph-name="top_tuichu" d="M527.035 5.379c-247.174 0-447.544 200.371-447.544 447.539 0 190.783 119.586 353.238 287.702 417.623v-69.242c-131.96-60.646-223.765-193.625-223.765-348.382 0-211.846 171.76-383.607 383.607-383.607 211.846 0 383.606 171.763 383.606 383.607 0 154.756-91.811 287.736-223.771 348.411v69.212c168.114-64.384 287.703-226.84 287.703-417.623 0.003-247.168-200.367-447.539-447.536-447.539zM495.067 900.461h63.931v-448.693h-63.931v448.693z" />
<glyph unicode="&#xe910;" glyph-name="top_xiaoxi" horiz-adv-x="905" d="M454.964-62.81c-79.705 0-154.783 56.309-173.553 136.013 0 9.385 0 18.77 4.626 28.154s14.011 10.971 23.528 10.971h286.17c9.385 0 18.77-1.586 23.528-10.971 4.626-9.385 9.385-18.77 4.626-28.154-14.011-79.705-89.222-136.013-168.926-136.013v0zM356.49 49.807c23.528-32.781 56.309-51.682 98.606-51.682 42.165 0 75.078 18.77 98.474 51.682h-197.081zM848.993 49.807h-783.3c-28.154 0-51.682 14.143-60.935 42.165-9.385 23.528-4.626 51.55 14.011 70.452l60.935 56.309c9.385 9.385 18.77 28.154 18.77 42.165v276.653c0 159.541 107.859 300.049 262.642 342.347 4.626 46.924 42.298 79.705 89.089 79.705 46.924 0 84.463-37.539 89.089-79.705 154.783-42.165 262.642-178.179 262.642-342.347v-276.785c0-14.143 4.626-32.781 18.77-42.298l65.694-60.935c18.77-18.77 23.528-42.165 14.011-65.561-9.12-23.396-27.89-42.165-51.418-42.165v0zM450.338 901.841c-18.77 0-32.781-14.011-32.781-32.781v-14.011c0-14.143-9.385-28.154-23.528-28.154-135.881-28.154-237.528-148.571-237.528-289.21v-276.785c0-32.781-14.011-65.561-37.407-84.331l-0.132-0.132-60.935-59.349 4.626-4.626h784.622l-65.561 63.975c-23.528 23.528-37.539 51.682-37.539 84.463l3.040 276.785c0 140.772-104.687 261.056-240.7 289.078-14.011 4.626-23.528 14.011-23.528 28.154v14.143c0.132 18.77-13.879 32.781-32.649 32.781v0z" />
<glyph unicode="&#xe911;" glyph-name="icon_zhuanjiao" d="M481.28 213.385l-48.179 45.056 192.717 189.867 192.7-189.867-44.971-45.056-147.746 144.811zM211.473 467.627h260.164v-64.375h-260.164zM211.473 808.721h581.359v-64.358h-581.359zM211.473 638.157h578.15v-64.341h-578.167zM879.548-50.483c-44.954 0-96.358 9.66-147.746 45.056-93.133 64.341-141.312 196.301-141.312 386.15h64.239c0-170.547 38.537-283.17 112.401-334.677 83.524-57.907 186.3-19.285 189.508-19.285l22.494-61.15s-44.971-16.094-99.584-16.094zM571.221-63.351h-420.796c-0.107 0-0.233-0.001-0.36-0.001-63.651 0-115.251 51.6-115.251 115.251 0 0.21 0.001 0.42 0.002 0.63v-0.032 791.62c-0.001 0.178-0.002 0.388-0.002 0.598 0 63.651 51.6 115.251 115.251 115.251 0.133 0 0.265 0 0.397-0.001h677.697c0.112 0 0.244 0.001 0.377 0.001 63.651 0 115.251-51.6 115.251-115.251 0-0.21-0.001-0.42-0.002-0.63v0.032-479.488h-64.239v479.488c0 28.962-22.477 51.49-51.371 51.49h-677.734c-28.928 3.209-54.613-22.528-54.613-51.49v-791.62c0-28.962 22.477-51.49 51.388-51.49h423.97v-64.358z" />
<glyph unicode="&#xe912;" glyph-name="icon_tuihui" d="M614.685 12.441c0.057 0 0.124 0 0.191 0 20.046 0 36.297-16.251 36.297-36.297s-16.251-36.297-36.297-36.297c-0.067 0-0.134 0-0.201 0.001h-470.974c-60.138 0-108.89 48.752-108.89 108.89v0 798.524c0 60.138 48.752 108.89 108.89 108.89v0h617.042c60.138 0 108.89-48.752 108.89-108.89v0c0-20.046-16.251-36.297-36.297-36.297s-36.297 16.251-36.297 36.297v0c0 20.046-16.25 36.296-36.296 36.297h-617.043c-20.046-0.001-36.296-16.251-36.296-36.297v-798.524c0 0 0-0.001 0-0.001 0-20.046 16.25-36.296 36.296-36.297h470.984zM869.632 364.336v-166.346c0-48.383-72.593-48.383-72.593 0v166.346c0 48.42 72.593 48.42 72.593 0zM252.59 665.78c-0.080-0.001-0.175-0.001-0.269-0.001-20.046 0-36.297 16.251-36.297 36.297s16.251 36.297 36.297 36.297c0.095 0 0.189 0 0.284-0.001h254.062c19.964-0.108 36.106-16.317 36.106-36.297s-16.142-36.188-36.096-36.296h-254.087zM252.59 484.297c-19.964 0.108-36.106 16.317-36.106 36.296s16.142 36.188 36.096 36.296h145.197c19.964-0.108 36.106-16.317 36.106-36.297s-16.142-36.188-36.096-36.296h-145.196zM651.2-22.258c0-20.046-16.251-36.297-36.297-36.297s-36.297 16.251-36.297 36.297v0l0.654 143.589c0 60.138 48.752 108.89 108.89 108.89v0l144.895-1.307c0.057 0 0.124 0 0.191 0 20.046 0 36.297-16.251 36.297-36.297s-16.251-36.297-36.297-36.297c-0.067 0-0.134 0-0.201 0.001h0.010l-144.896 1.307c-20.046-0.001-36.296-16.251-36.296-36.297v0l-0.653-143.59zM649.494-46.141c-6.513-6.254-15.374-10.106-25.136-10.106-20.054 0-36.312 16.257-36.312 36.312 0 10.293 4.283 19.586 11.164 26.194l0.012 0.012 204.604 196.22c6.577 6.619 15.685 10.716 25.751 10.716 20.046 0 36.297-16.251 36.297-36.297 0-10.598-4.542-20.136-11.787-26.772l-0.027-0.025-204.567-196.254zM925.094 649.301c7.644 6.576 12.454 16.26 12.454 27.068 0 8.934-3.287 17.1-8.717 23.355l0.037-0.044-0.472 0.58c-6.69 7.663-16.477 12.477-27.387 12.477-9.004 0-17.242-3.279-23.586-8.707l0.050 0.041-488.406-415.196-17.241-58.8 66.169 5.154 487.1 414.070zM983.64 747.301c16.469-18.878 26.511-43.736 26.511-70.938 0-32.515-14.347-61.679-37.055-81.507l-0.128-0.109-496.9-422.456c-5.59-4.774-12.724-7.892-20.56-8.522l-0.128-0.008-130.378-10.090c-0.843-0.070-1.825-0.109-2.816-0.109-20.046 0-36.297 16.251-36.297 36.297 0 3.649 0.538 7.171 1.54 10.493l-0.067-0.257 35.1 119.633c2.102 7.003 6.047 12.92 11.274 17.38l0.050 0.042 496.61 422.202c18.88 16.152 43.588 25.982 70.592 25.982 32.742 0 62.108-14.451 82.070-37.322l0.11-0.129 0.472-0.58z" />
<glyph unicode="&#xe913;" glyph-name="icon_zhipai" d="M337.92 64h-209.92c-0.002 0-0.004 0-0.007 0-23.564 0-42.667 19.103-42.667 42.667s19.103 42.667 42.667 42.667c0.002 0 0.005 0 0.007 0h209.92l-40.96 40.96c-7.095 7.599-11.451 17.834-11.451 29.087 0 23.564 19.103 42.667 42.667 42.667 11.253 0 21.488-4.356 29.112-11.474l-0.025 0.023 113.778-113.778c7.71-7.719 12.478-18.378 12.478-30.151s-4.768-22.432-12.478-30.152v0l-113.778-113.778c-7.599-7.095-17.834-11.451-29.087-11.451-23.564 0-42.667 19.103-42.667 42.667 0 11.253 4.356 21.488 11.474 29.112l-0.023-0.025 40.96 40.96zM582.884 409.941c201.728-38.229 341.561-186.709 341.561-374.386 0-0.002 0-0.004 0-0.007 0-23.564-19.103-42.667-42.667-42.667s-42.667 19.103-42.667 42.667c0 0.002 0 0.005 0 0.007v0c0 168.732-149.049 298.667-360.676 298.667-130.332 0-184.889-15.588-250.88-74.524-7.517-6.734-17.5-10.851-28.444-10.851-23.587 0-42.708 19.121-42.708 42.708 0 12.643 5.493 24.002 14.223 31.822l0.041 0.036c61.668 55.012 118.101 81.067 202.866 91.022-95.222 43.2-160.256 137.441-160.256 246.872 0 149.271 121.008 270.279 270.279 270.279s270.279-121.008 270.279-270.279c0-113.51-69.973-210.676-169.137-250.718l-1.815-0.647zM483.556 476.444c102.111 0 184.889 82.778 184.889 184.889s-82.778 184.889-184.889 184.889v0c-102.111 0-184.889-82.778-184.889-184.889s82.778-184.889 184.889-184.889v0z" />
<glyph unicode="&#xe914;" glyph-name="icon_shanchu" d="M517.59 938.391c-100.299 0-181.703-79.514-185.167-179.34h-233.82c-25.979 0-47.235-21.099-47.235-47.236 0-25.98 21.099-47.237 47.236-47.237h52.117v-528.416c0-99.196 67.233-180.285 150.37-180.285h423.55c82.98 0 150.37 80.616 150.37 180.285v528.101h47.236c25.98 0 47.236 21.1 47.236 47.237 0 25.98-21.099 47.236-47.236 47.236h-219.806c-2.992 100.14-84.553 179.654-184.851 179.654zM420.913 759.051c3.464 51.172 45.19 90.85 96.834 90.85s93.37-39.835 96.362-90.85h-193.196zM300.933 44.209c-29.444 0-61.88 37.789-61.88 91.953v528.101h547.311v-528.573c0-54.007-32.436-91.954-61.88-91.954h-423.551v0.473zM364.387 157.733c21.57 0 39.363 21.571 39.363 48.653v277.592c0 27.082-17.635 48.654-39.363 48.654-21.572 0-39.364-21.572-39.364-48.654v-277.592c0-26.924 17.32-48.653 39.364-48.653zM506.883 157.733c21.571 0 39.363 21.571 39.363 48.653v277.592c0 27.082-17.635 48.654-39.363 48.654-21.571 0-39.364-21.572-39.364-48.654v-277.592c0-26.924 17.793-48.653 39.364-48.653zM656.779 157.733c21.571 0 39.364 21.571 39.364 48.653v277.592c0 27.082-17.635 48.654-39.364 48.654-21.571 0-39.363-21.572-39.363-48.654v-277.592c0-26.924 17.162-48.653 39.363-48.653z" />
<glyph unicode="&#xe915;" glyph-name="icon_xyjt" d="M280.576 818.688l352.256-368.64-350.208-368.64c-18.432-18.432-18.432-47.104 0-65.536 16.384-18.432 45.056-18.432 63.488 0l395.264 401.408c18.432 18.432 18.432 47.104 0 65.536l-397.312 401.408c-16.384 18.432-45.056 18.432-63.488 0s-18.432-47.104 0-65.536v0z" />
<glyph unicode="&#xe916;" glyph-name="icon_xzjt" d="M741.376 818.688c18.432 18.432 18.432 47.104 0 65.536s-47.104 18.432-63.488 0l-397.312-401.408c-18.432-18.432-18.432-47.104 0-65.536l395.264-401.408c18.432-18.432 47.104-18.432 63.488 0 18.432 18.432 18.432 47.104 0 65.536l-350.208 368.64 352.256 368.64z" />
<glyph unicode="&#xe917;" glyph-name="icon_xxjt" d="M880.64 474.624l-368.64-350.208-368.64 350.208c-18.432 18.432-47.104 18.432-65.536 0s-18.432-47.104 0-63.488l401.408-395.264c18.432-18.432 47.104-18.432 65.536 0l401.408 395.264c18.432 18.432 18.432 47.104 0 63.488-18.432 18.432-47.104 18.432-65.536 0v0z" />
<glyph unicode="&#xe918;" glyph-name="menu_zb" d="M905.077 880.385h-104.82v39.307c-0.001 21.621-17.697 39.308-39.308 39.308-21.624 0-39.308-17.687-39.308-39.308v-39.308h-419.282v39.308c0 21.621-17.696 39.308-39.308 39.308-21.624 0-39.308-17.687-39.308-39.308v-39.308h-104.82c-57.656 0-104.821-47.171-104.821-104.821v-733.743c0-57.653 47.164-104.82 104.821-104.82h786.154c57.656 0 104.821 47.167 104.821 104.82v733.744c-0.001 57.65-47.165 104.821-104.821 104.821zM931.282 68.026c0-28.825-23.582-52.41-52.41-52.41h-733.744c-28.828 0-52.41 23.585-52.41 52.41v445.487h838.564v-445.487zM92.718 592.128v157.231c0 28.825 23.582 52.41 52.41 52.41h78.615v-39.308c0-21.618 17.683-39.308 39.308-39.308 21.612 0 39.308 17.69 39.308 39.308v39.308h419.282v-39.308c0-21.618 17.683-39.308 39.308-39.308 21.612 0 39.308 17.69 39.308 39.308v39.308h78.615c28.828 0 52.41-23.585 52.41-52.41v-157.231h-838.564zM420.282 349.731h127.302l-79.396-218.121c-7.396-20.313 3.173-42.986 23.492-50.379 20.319-7.396 42.993 3.176 50.389 23.492l98.589 270.874c0.806 2.23 0.614 4.501 1.011 6.766 0.409 2.252 1.356 4.312 1.356 6.676 0 0.358-0.192 0.659-0.205 1.014-0.077 2.802-0.985 5.377-1.638 8.064-0.576 2.316-0.755 4.731-1.727 6.868-1.011 2.29-2.738 4.127-4.184 6.19-1.433 2.041-2.546 4.267-4.338 5.998-1.702 1.647-3.915 2.658-5.911 3.992-2.29 1.526-4.389 3.24-6.974 4.267-0.333 0.131-0.55 0.419-0.883 0.544-2.239 0.813-4.517 0.624-6.782 1.014-2.252 0.403-4.312 1.356-6.666 1.356h-183.435c-21.624 0-39.308-17.687-39.308-39.308 0-21.617 17.684-39.307 39.308-39.307z" />
<glyph unicode="&#xe919;" glyph-name="icon_xsjt" d="M880.102 14.51c18.020-17.82 47.144-17.82 65.097 0 17.954 17.753 17.954 46.611 0 64.429l-401.157 395.954c-18.020 17.82-47.077 17.82-65.097 0l-401.157-395.953c-17.954-17.82-18.020-46.611 0-64.429s47.21-17.82 65.097-0.067l368.641 350.142 368.576-350.076z" />
<glyph unicode="&#xe91a;" glyph-name="icon_rili" d="M443.9 381.6c0-38.1 31.8-68.8 70.3-67 34.4 1.6 62.3 29.5 63.8 63.9 1.8 38.5-28.9 70.3-67 70.3-37-0.1-67.1-30.2-67.1-67.2zM688.7 381.6c0-38.1 31.8-68.8 70.2-67 34.4 1.6 62.3 29.5 63.9 63.8 1.8 38.5-28.9 70.3-67 70.3-37.1 0-67.1-30.1-67.1-67.1zM310.6 671.1c24.3 0 45.5 19.7 45.5 44.2v200.5c0 24.4-21.2 44.2-45.5 44.2-11.7 0-22.9-4.7-31.2-12.9-8.3-8.3-12.9-19.5-12.9-31.2v-200.7c-0.1-24.5 19.7-44.2 44.1-44.1zM711.3 671.1c24.4 0 45.5 19.7 45.5 44.2v200.5c0 24.4-21.2 44.2-45.5 44.2-24.4 0-44.1-19.8-44.1-44.2v-200.7c0-24.4 19.8-44.1 44.1-44zM198.8 381.6c0-38.1 31.8-68.8 70.3-67 34.4 1.6 62.3 29.5 63.8 63.9 1.8 38.5-28.9 70.3-67 70.3-37.1-0.1-67.1-30.2-67.1-67.2zM197.6 136.4c0-38.1 31.8-68.8 70.3-67 34.4 1.6 62.3 29.5 63.8 63.9 1.8 38.5-28.9 70.2-67 70.2-37.1-0.1-67.1-30.1-67.1-67.1zM443.9 136.4c0-38.1 31.8-68.8 70.3-67 34.4 1.6 62.3 29.5 63.8 63.9 1.8 38.5-28.9 70.2-67 70.2-37-0.1-67.1-30.1-67.1-67.1zM884.6 848.8h-54.4c-1.6 0.3-3.1 1-4.8 1-18.8 0-34.1-15.3-34.1-34.1s15.3-34.1 34.1-34.1c1.7 0 3.1 0.7 4.6 0.9h57.7c25.4 0 46.8-21.4 46.8-46.8v-154.4h-845.8v154.4c0 25.4 21.4 46.8 46.7 46.8h42.3c4.5 0 9-0.5 13.4-0.9h0.6c18.8 0 34.1 15.3 34.1 34.1s-15.3 34.1-34.1 34.1c-0.4 0-0.8 0-1.1-0.1-4.4-0.7-8.9-0.9-13.4-0.9h-38c-64.5-0.3-116.6-52.6-116.8-117v-678.8c0-64.3 50.6-117 114.9-117h747.2c64.5 0.2 116.7 52.5 116.8 117v678.7c0.1 64.5-52.1 116.8-116.7 117.1zM934.5 49.5c-0.3-25.7-21.1-46.5-46.8-46.8h-752.3c-25.7 0.3-46.4 21.1-46.7 46.8v465.4h845.9v-465.4zM435 781.5c1 0 1.8 0.5 2.8 0.7h150c0.9-0.1 1.8-0.7 2.8-0.7s1.8 0.5 2.8 0.7h3.6v0.7c15.7 3.1 27.7 16.3 27.7 32.8s-12.1 29.7-27.7 32.8v0.3h-1.6c-1.6 0.3-3.1 1-4.8 1s-3.1-0.7-4.8-1h-146c-1.6 0.3-3.1 1-4.8 1-18.8 0-34.1-15.3-34.1-34.1s15.3-34.1 34.1-34.2z" />
<glyph unicode="&#xe91b;" glyph-name="icon_wancheng" d="M1.862 483.375v342.575c0 124.742 68.887 134.051 135.913 134.051h545.513c104.262 0 137.775-35.375 137.775-135.913v-68.887c0-53.993-68.887-48.407-68.887 0v68.887c0 50.269-16.756 68.887-68.887 68.887h-545.513c-55.855 0-68.887-7.447-68.887-68.887v-683.287c0-37.236 20.48-68.887 68.887-68.887h135.913c40.96 0 44.684-68.887 0-68.887h-161.978c-48.407 0-89.367 29.789-104.262 74.473-3.724 13.033-5.585 26.065-5.585 39.098v366.778zM681.425-62.138c-188.044 0-340.713 152.669-340.713 340.713s152.669 340.713 340.713 340.713 342.575-154.531 342.575-342.575c0-188.044-152.669-338.851-342.575-338.851zM683.287 550.4c-148.945 0-271.825-122.88-271.825-271.825 0-150.807 121.018-271.825 271.825-273.687 150.807 0 273.687 121.018 273.687 269.964-1.862 152.669-122.88 275.549-273.687 275.549zM614.4 755.2c53.993 0 46.545-68.887 0-68.887h-409.6c-50.269 0-48.407 68.887 0 68.887h409.6zM273.687 550.4c53.993 0 46.545-68.887 0-68.887h-68.887c-50.269 0-48.407 68.887 0 68.887h68.887zM850.851 405.178c-14.895 14.895-40.96 14.895-55.855 0l-171.287-171.287-52.131 52.131c-14.895 14.895-40.96 14.895-55.855 0s-14.895-40.96 0-55.855l80.058-80.058c7.447-7.447 18.618-11.171 27.927-11.171s20.48 3.724 27.927 11.171l3.724 3.724c1.862 0 1.862 1.862 3.724 3.724l191.767 191.767c14.895 14.895 14.895 40.96 0 55.855z" />
<glyph unicode="&#xe91c;" glyph-name="icon_zhoubao" d="M430.080 265.216h163.84c13.824 0 20.48 10.24 20.48 20.48v88.576c0 13.824-10.24 20.48-20.48 20.48h-163.84c-13.824 0-20.48-10.24-20.48-20.48v-88.576c0-13.312 10.24-20.48 20.48-20.48zM454.144 350.72h122.88v-47.616h-122.88v47.616zM283.136 173.056c3.584 0 6.656-3.584 13.824-3.584h3.584c6.656 0 10.24 3.584 10.24 10.24 34.304 65.024 51.2 146.944 51.2 249.344v177.664h310.784v-375.296c0-6.656 0-6.656-6.656-6.656h-68.096c-6.656 0-10.24-3.584-13.824-6.656s-3.584-10.24-3.584-13.824l3.584-16.896c3.584-6.656 10.24-13.824 16.896-13.824h71.68c27.136 0 44.544 13.824 51.2 34.304v433.152c0 10.24-6.656 16.896-16.896 16.896h-379.392c-10.24 0-16.896-10.24-16.896-16.896v-215.040c0-88.576-16.896-163.84-44.544-218.624-3.584-6.656 0-13.824 3.584-20.48l13.312-13.824zM710.144 791.040c20.48 0 34.304 13.824 34.304 27.136v109.568c0 16.896-13.824 27.136-34.304 27.136s-34.304-13.824-34.304-27.136v-109.056c0-17.408 16.896-27.648 34.304-27.648zM300.544 791.040c20.48 0 34.304 13.824 34.304 27.136v109.568c-0.512 16.896-17.408 27.136-34.304 27.136-17.408 0-34.304-13.824-34.304-27.136v-109.056c0-17.408 16.896-27.648 34.304-27.648zM402.944 828.416h204.8c16.896 0 30.72 16.896 30.72 34.304 0 20.48-13.824 34.304-30.72 34.304h-204.8c-16.896 0-30.72-16.896-30.72-34.304 3.072-20.48 16.896-34.304 30.72-34.304zM402.944 470.016c-10.24 0-16.896-6.656-16.896-16.896v-13.824c0-10.24 10.24-16.896 16.896-16.896h221.696c10.24 0 16.896 10.24 16.896 16.896v13.824c0 10.24-6.656 16.896-16.896 16.896h-85.504v24.064h68.096c10.24 0 16.896 6.656 16.896 16.896v13.824c0 10.24-6.656 16.896-16.896 16.896h-68.096v27.136c0 10.24-10.24 16.896-16.896 16.896h-13.824c-10.24 0-16.896-6.656-16.896-16.896v-27.136h-71.68c-10.24 0-16.896-6.656-16.896-16.896v-13.824c0-10.24 10.24-16.896 16.896-16.896h71.68v-24.064h-88.576zM836.096 900.096h-20.48c-20.48 0-34.304-16.896-34.304-34.304 0-16.896 16.896-34.304 34.304-34.304h20.48c65.024 0 119.296-51.2 119.296-119.296v-576.512c0-65.024-54.784-119.296-119.296-119.296h-645.12c-64.512 0-119.296 54.272-119.296 119.296v573.44c0 65.024 54.784 119.296 119.296 119.296 20.48 0 34.304 16.896 34.304 34.304s-16.896 34.304-34.304 34.304c-105.472 3.072-190.976-81.92-190.976-187.904v-577.024c0-105.472 85.504-190.976 190.976-190.976h645.12c105.984 0 187.904 85.504 187.904 190.976v577.024c0 105.984-85.504 190.976-187.904 190.976z" />
</font>
</defs>
</svg>
